# xmcd
#
# Track frame offsets:
#	150
#	12713
#	24847
#	39042
#	56394
#	68516
#	80048
#	90767
#	100311
#	113357
#	128112
#	138898
#	150178
#	160923
#	171762
#	181866
#
# Disc length: 2639 seconds
#
# Revision: 1
# Processed by: cddbd v1.5.2PL0 Copyright (c) Steve Scherf et al.
# Submitted via: audiograbber 1.83.01
#
DISCID=aa0a4d10
DTITLE=Cash, Johnny - CB5050-03
DYEAR=1900
DGENRE=Karaoke
TTITLE0=Cash, Johnny - Blistered
TTITLE1=Cash, Johnny - Ring Of Fire
TTITLE2=Cash, Johnny and June Carter - Jackson
TTITLE3=Cash, Johnny - Sunday Morning Coming Down
TTITLE4=Cash, Johnny - Cry Cry Cry
TTITLE5=Cash, Johnny - Kate
TTITLE6=Cash, Johnny - Smiling Bill McCall
TTITLE7=Cash, Johnny - Guess Things Happen That Way
TTITLE8=Cash, Johnny - So Doggone Lonesome
TTITLE9=Cash, Johnny - Orange Blossom Special
TTITLE10=Cash, Johnny - What Do I Care
TTITLE11=Cash, Johnny - Ways Of A Woman In Love, The
TTITLE12=Cash, Johnny - It's Just About Time
TTITLE13=Cash, Johnny - All Over Again
TTITLE14=Cash, Johnny - I Got Stripes
TTITLE15=Cash, Johnny - There Ain't No Good Chain Gang
EXTD=
EXTT0=
EXTT1=
EXTT2=
EXTT3=
EXTT4=
EXTT5=
EXTT6=
EXTT7=
EXTT8=
EXTT9=
EXTT10=
EXTT11=
EXTT12=
EXTT13=
EXTT14=
EXTT15=
PLAYORDER=
